<?xml version="1.0" encoding="utf-8"?>
<!-- Generator: Adobe Illustrator 27.9.1, SVG Export Plug-In . SVG Version: 6.00 Build 0)  -->
<svg version="1.1" id="Layer_1" xmlns="http://www.w3.org/2000/svg" xmlns:xlink="http://www.w3.org/1999/xlink" x="0px" y="0px"
	 viewBox="0 0 252 144" style="enable-background:new 0 0 252 144;" xml:space="preserve">
<style type="text/css">
	.st0{fill:none;stroke:#FDB615;stroke-width:0.6255;stroke-miterlimit:10;}
	.st1{fill:none;stroke:#F06DA9;stroke-width:3.0744;stroke-miterlimit:10;}
	.st2{fill:#F399C1;}
	.st3{fill:#F06DA9;}
	.st4{fill:none;stroke:#F06DA9;stroke-width:1.0565;stroke-miterlimit:10;}
</style>
<g>
	<path class="st0" d="M145.33,10.52c-8.79,7.85-9.19,22.56-8.89,25.73c0.27,2.87-10.79,8.72-12.1,11.14s2.62,4.94,3.64,5.59
		c1.02,0.65-2.01,4.26-2.73,5.28c-0.72,1.02,1.1,2.98,1.1,2.98s-1.96,0.88-1.81,2.39c0.15,1.51,1.55,2.1,1.7,4.48
		c0.15,2.37-2.4,3.87-2.02,6.93s5.1,6.48,8.9,7.15c3.8,0.67,17.32,2.37,18.88,12.29"/>
	<path class="st0" d="M168.33,42.38c4.2,0,7.66,2.85,7.66,6.31c0,3.46-3.46,6.31-7.66,6.31c-0.02,0-0.05,0-0.07,0"/>
	<g>
		<circle class="st1" cx="171.35" cy="60.83" r="7.39"/>
		<line class="st1" x1="171.35" y1="89.78" x2="171.35" y2="68.22"/>
		<line class="st1" x1="178.74" y1="79" x2="163.96" y2="79"/>
	</g>
	<polygon class="st2" points="268.11,146.91 251.08,147.17 153.64,-0.51 153.36,-0.93 147.93,-9.18 191.66,-10.32 262.79,-13.36 
		263.08,-2.46 263.13,-0.51 264.69,59.29 	"/>
	<g id="XMLID_00000029762382561589328130000017943638951849884588_">
		<g>
			<path class="st3" d="M264.89,148.41l-18.08,5.45c-8.99,4.66-20.29-7.42-26.97-16.25c-3.25-4.29-5.67-9.14-7.16-14.31
				c-2.24-7.81-7.48-21.25-18.1-27.51c-15.47-9.13-9.89-32.48-9.89-32.48s2.54-23.05-14.2-28.89S142.22-4.23,142.22-4.23l22.97-2.72
				c0,0,9.89,29.12,26.62,34.95s14.2,28.9,14.2,28.9s-5.58,23.34,9.89,32.47c11.17,6.59,16.39,21.12,18.43,28.68
				c1,3.75,2.62,7.3,4.87,10.46C244.76,136.35,255.55,149.42,264.89,148.41z"/>
		</g>
		<g>
			<path class="st4" d="M264.89,148.41c-9.34,1-20.13-12.07-25.69-19.9c-2.25-3.16-3.87-6.71-4.87-10.46
				c-2.04-7.56-7.26-22.09-18.43-28.68c-15.47-9.13-9.89-32.47-9.89-32.47s2.54-23.06-14.2-28.9S165.19-6.95,165.19-6.95
				l-22.97,2.72c0,0,11.54,32.84,28.27,38.67s14.2,28.89,14.2,28.89s-5.58,23.35,9.89,32.48c10.62,6.27,15.86,19.7,18.1,27.51
				c1.49,5.17,3.91,10.02,7.16,14.31c6.69,8.83,17.98,20.91,26.97,16.25L264.89,148.41z"/>
			<path class="st4" d="M264.89,148.41l3.24-0.98C267.08,147.98,265.99,148.3,264.89,148.41z"/>
		</g>
	</g>
</g>
</svg>
